<svg xmlns="http://www.w3.org/2000/svg" xmlns:xlink="http://www.w3.org/1999/xlink" width="500" zoomAndPan="magnify" viewBox="0 0 375 374.999991" height="500" preserveAspectRatio="xMidYMid meet" version="1.0"><defs><g/><clipPath id="cd31825a08"><rect x="0" width="294" y="0" height="375"/></clipPath><clipPath id="7ff7061a7a"><path d="M 0 239.164062 L 375 239.164062 L 375 322.246094 L 0 322.246094 Z M 0 239.164062 " clip-rule="nonzero"/></clipPath><clipPath id="2a198f18e0"><path d="M 0 0.164062 L 375 0.164062 L 375 83.246094 L 0 83.246094 Z M 0 0.164062 " clip-rule="nonzero"/></clipPath><clipPath id="92a491361b"><rect x="0" width="375" y="0" height="84"/></clipPath><clipPath id="f22856a73f"><rect x="0" width="46" y="0" height="134"/></clipPath><clipPath id="4c2e6bdca3"><path d="M 317.515625 58.734375 L 346.765625 58.734375 L 346.765625 87.984375 L 317.515625 87.984375 Z M 317.515625 58.734375 " clip-rule="nonzero"/></clipPath></defs><g transform="matrix(1, 0, 0, 1, 53, 0)"><g clip-path="url(#cd31825a08)"><g fill="#000000" fill-opacity="1"><g transform="translate(0.306639, 299.175744)"><g><path d="M 91.21875 6.90625 C 66.644531 6.90625 46.445312 0.765625 30.625 -11.515625 C 14.8125 -23.804688 6.90625 -40.085938 6.90625 -60.359375 C 6.90625 -80.628906 15.660156 -97.675781 33.171875 -111.5 C 50.679688 -125.320312 77.097656 -134.078125 112.421875 -137.765625 L 158.03125 -143.28125 C 163.5625 -143.894531 168.015625 -145.660156 171.390625 -148.578125 C 174.773438 -151.503906 176.46875 -155.421875 176.46875 -160.328125 C 176.46875 -170.472656 172.472656 -178.613281 164.484375 -184.75 C 156.492188 -190.894531 146.203125 -193.96875 133.609375 -193.96875 C 119.484375 -193.96875 107.8125 -189.585938 98.59375 -180.828125 C 89.382812 -172.078125 84.164062 -161.867188 82.9375 -150.203125 L 14.28125 -160.796875 C 15.820312 -177.078125 21.582031 -191.585938 31.5625 -204.328125 C 41.539062 -217.078125 55.128906 -227.0625 72.328125 -234.28125 C 89.535156 -241.5 109.347656 -245.109375 131.765625 -245.109375 C 166.472656 -245.109375 194.117188 -236.582031 214.703125 -219.53125 C 235.285156 -202.488281 245.578125 -179.222656 245.578125 -149.734375 L 245.578125 -58.515625 C 245.578125 -47.148438 249.566406 -41.46875 257.546875 -41.46875 C 264.304688 -41.46875 270.453125 -45 275.984375 -52.0625 L 292.5625 -14.75 C 285.5 -7.675781 276.359375 -2.300781 265.140625 1.375 C 253.929688 5.0625 242.953125 6.90625 232.203125 6.90625 C 218.078125 6.90625 205.945312 3.066406 195.8125 -4.609375 C 185.675781 -12.285156 179.835938 -21.5 178.296875 -32.25 L 177.375 -40.546875 L 176.921875 -40.546875 C 169.242188 -26.410156 158.03125 -14.96875 143.28125 -6.21875 C 128.539062 2.53125 111.1875 6.90625 91.21875 6.90625 Z M 117.953125 -41.46875 C 134.535156 -41.46875 148.203125 -46.609375 158.953125 -56.890625 C 169.703125 -67.179688 175.078125 -80.316406 175.078125 -96.296875 L 175.078125 -105.96875 L 129.921875 -100.90625 C 110.265625 -98.75 96.597656 -94.753906 88.921875 -88.921875 C 81.242188 -83.085938 77.40625 -76.332031 77.40625 -68.65625 C 77.40625 -60.664062 81.242188 -54.132812 88.921875 -49.0625 C 96.597656 -44 106.273438 -41.46875 117.953125 -41.46875 Z M 117.953125 -41.46875 "/></g></g></g></g></g><g clip-path="url(#7ff7061a7a)"><g transform="matrix(1, 0, 0, 1, 0, 239)"><g clip-path="url(#92a491361b)"><g clip-path="url(#2a198f18e0)"><path fill="#f5f5f3" d="M 0 0.164062 L 374.855469 0.164062 L 374.855469 83.246094 L 0 83.246094 Z M 0 0.164062 " fill-opacity="1" fill-rule="nonzero"/></g></g></g></g><g transform="matrix(1, 0, 0, 1, 308, 106)"><g clip-path="url(#f22856a73f)"><g fill="#000000" fill-opacity="1"><g transform="translate(34.522164, 133.157743)"><g><path d="M 0.75 -24.390625 C 0.75 -22.921875 0.34375 -21.691406 -0.46875 -20.703125 C -1.289062 -19.722656 -2.394531 -19.023438 -3.78125 -18.609375 L -8.109375 -17.328125 C -8.992188 -17.078125 -9.722656 -16.660156 -10.296875 -16.078125 C -10.878906 -15.492188 -11.171875 -14.773438 -11.171875 -13.921875 L -11.171875 -9.390625 L 0 -9.390625 L 0 -2.28125 L -29.578125 -2.28125 L -29.578125 -17 C -29.578125 -20.507812 -28.757812 -23.28125 -27.125 -25.3125 C -25.488281 -27.351562 -23.257812 -28.375 -20.4375 -28.375 C -18.5 -28.375 -16.816406 -27.753906 -15.390625 -26.515625 C -13.960938 -25.285156 -12.972656 -23.566406 -12.421875 -21.359375 L -12.375 -21.359375 C -12.070312 -22.128906 -11.628906 -22.734375 -11.046875 -23.171875 C -10.460938 -23.617188 -9.742188 -23.96875 -8.890625 -24.21875 L -5.40625 -25.171875 C -4.957031 -25.316406 -4.582031 -25.519531 -4.28125 -25.78125 C -3.976562 -26.039062 -3.828125 -26.394531 -3.828125 -26.84375 C -3.828125 -27.226562 -3.9375 -27.597656 -4.15625 -27.953125 C -4.375 -28.316406 -4.664062 -28.640625 -5.03125 -28.921875 L -1.65625 -30.40625 C -0.9375 -29.6875 -0.359375 -28.800781 0.078125 -27.75 C 0.523438 -26.695312 0.75 -25.578125 0.75 -24.390625 Z M -16.03125 -9.390625 L -16.03125 -16.078125 C -16.03125 -17.660156 -16.40625 -18.921875 -17.15625 -19.859375 C -17.90625 -20.796875 -18.914062 -21.265625 -20.1875 -21.265625 C -21.4375 -21.265625 -22.441406 -20.796875 -23.203125 -19.859375 C -23.960938 -18.921875 -24.34375 -17.660156 -24.34375 -16.078125 L -24.34375 -9.390625 Z M -16.03125 -9.390625 "/></g></g></g><g fill="#000000" fill-opacity="1"><g transform="translate(34.522164, 103.363648)"><g><path d="M -24.890625 -13.09375 L -25.921875 -11.84375 L -31.90625 -16.625 L -30.90625 -17.90625 Z M 0.828125 -12.75 C 0.828125 -10.394531 0.359375 -8.332031 -0.578125 -6.5625 C -1.523438 -4.789062 -2.863281 -3.410156 -4.59375 -2.421875 C -6.320312 -1.441406 -8.335938 -0.953125 -10.640625 -0.953125 C -12.960938 -0.953125 -14.984375 -1.441406 -16.703125 -2.421875 C -18.421875 -3.410156 -19.75 -4.789062 -20.6875 -6.5625 C -21.632812 -8.332031 -22.109375 -10.394531 -22.109375 -12.75 C -22.109375 -15.132812 -21.632812 -17.210938 -20.6875 -18.984375 C -19.75 -20.753906 -18.421875 -22.128906 -16.703125 -23.109375 C -14.984375 -24.097656 -12.960938 -24.59375 -10.640625 -24.59375 C -8.335938 -24.59375 -6.320312 -24.097656 -4.59375 -23.109375 C -2.863281 -22.128906 -1.523438 -20.753906 -0.578125 -18.984375 C 0.359375 -17.210938 0.828125 -15.132812 0.828125 -12.75 Z M -4.453125 -12.75 C -4.453125 -14.46875 -5.003906 -15.828125 -6.109375 -16.828125 C -7.210938 -17.828125 -8.722656 -18.328125 -10.640625 -18.328125 C -12.546875 -18.328125 -14.050781 -17.828125 -15.15625 -16.828125 C -16.269531 -15.828125 -16.828125 -14.46875 -16.828125 -12.75 C -16.828125 -11.0625 -16.269531 -9.710938 -15.15625 -8.703125 C -14.050781 -7.691406 -12.546875 -7.1875 -10.640625 -7.1875 C -8.722656 -7.1875 -7.210938 -7.691406 -6.109375 -8.703125 C -5.003906 -9.710938 -4.453125 -11.0625 -4.453125 -12.75 Z M -4.453125 -12.75 "/></g></g></g><g fill="#000000" fill-opacity="1"><g transform="translate(34.522164, 77.849578)"><g><path d="M 0.625 -10.421875 C 0.625 -8.566406 0.15625 -6.925781 -0.78125 -5.5 C -1.726562 -4.070312 -3.046875 -2.957031 -4.734375 -2.15625 C -6.421875 -1.351562 -8.390625 -0.953125 -10.640625 -0.953125 C -12.910156 -0.953125 -14.878906 -1.351562 -16.546875 -2.15625 C -18.222656 -2.957031 -19.53125 -4.070312 -20.46875 -5.5 C -21.414062 -6.925781 -21.890625 -8.566406 -21.890625 -10.421875 C -21.890625 -13.804688 -20.328125 -16.257812 -17.203125 -17.78125 L -17.203125 -17.828125 L -30.828125 -17.828125 L -30.828125 -24.1875 L 0 -24.1875 L 0 -18.859375 L -4.078125 -17.90625 L -4.078125 -17.859375 C -2.546875 -17.117188 -1.378906 -16.109375 -0.578125 -14.828125 C 0.222656 -13.554688 0.625 -12.085938 0.625 -10.421875 Z M -4.734375 -12.671875 C -4.734375 -13.722656 -4.992188 -14.65625 -5.515625 -15.46875 C -6.046875 -16.289062 -6.753906 -16.929688 -7.640625 -17.390625 C -8.523438 -17.847656 -9.523438 -18.078125 -10.640625 -18.078125 C -12.328125 -18.078125 -13.726562 -17.570312 -14.84375 -16.5625 C -15.96875 -15.550781 -16.53125 -14.253906 -16.53125 -12.671875 C -16.53125 -11.117188 -15.96875 -9.828125 -14.84375 -8.796875 C -13.726562 -7.773438 -12.328125 -7.265625 -10.640625 -7.265625 C -8.953125 -7.265625 -7.546875 -7.773438 -6.421875 -8.796875 C -5.296875 -9.828125 -4.734375 -11.117188 -4.734375 -12.671875 Z M -4.734375 -12.671875 "/></g></g></g><g fill="#000000" fill-opacity="1"><g transform="translate(34.522164, 52.003063)"><g><path d="M 0.828125 -13.671875 C 0.828125 -11.179688 0.335938 -8.976562 -0.640625 -7.0625 C -1.628906 -5.15625 -2.992188 -3.660156 -4.734375 -2.578125 C -6.484375 -1.492188 -8.492188 -0.953125 -10.765625 -0.953125 C -13.003906 -0.953125 -14.972656 -1.429688 -16.671875 -2.390625 C -18.378906 -3.347656 -19.710938 -4.691406 -20.671875 -6.421875 C -21.628906 -8.148438 -22.109375 -10.148438 -22.109375 -12.421875 C -22.109375 -14.640625 -21.648438 -16.570312 -20.734375 -18.21875 C -19.816406 -19.863281 -18.546875 -21.148438 -16.921875 -22.078125 C -15.304688 -23.003906 -13.429688 -23.46875 -11.296875 -23.46875 C -10.878906 -23.46875 -10.457031 -23.441406 -10.03125 -23.390625 C -9.601562 -23.335938 -9.222656 -23.269531 -8.890625 -23.1875 L -8.890625 -7.484375 C -7.367188 -7.671875 -6.144531 -8.351562 -5.21875 -9.53125 C -4.289062 -10.707031 -3.828125 -12.171875 -3.828125 -13.921875 C -3.828125 -15.242188 -4.09375 -16.488281 -4.625 -17.65625 C -5.164062 -18.820312 -5.867188 -19.707031 -6.734375 -20.3125 L -3.953125 -23.9375 C -2.535156 -23.070312 -1.382812 -21.71875 -0.5 -19.875 C 0.382812 -18.039062 0.828125 -15.972656 0.828125 -13.671875 Z M -12.546875 -7.4375 L -12.546875 -17.03125 C -14.128906 -16.925781 -15.363281 -16.457031 -16.25 -15.625 C -17.132812 -14.789062 -17.578125 -13.722656 -17.578125 -12.421875 C -17.578125 -11.085938 -17.113281 -9.972656 -16.1875 -9.078125 C -15.257812 -8.179688 -14.046875 -7.632812 -12.546875 -7.4375 Z M -12.546875 -7.4375 "/></g></g></g><g fill="#000000" fill-opacity="1"><g transform="translate(34.522164, 27.278518)"><g><path d="M -21.890625 -15.578125 C -21.890625 -17.765625 -21.253906 -19.476562 -19.984375 -20.71875 C -18.710938 -21.96875 -16.941406 -22.59375 -14.671875 -22.59375 L 0 -22.59375 L 0 -16.25 L -12.71875 -16.25 C -13.9375 -16.25 -14.890625 -15.925781 -15.578125 -15.28125 C -16.273438 -14.644531 -16.625 -13.773438 -16.625 -12.671875 C -16.625 -11.316406 -16.175781 -10.203125 -15.28125 -9.328125 C -14.394531 -8.453125 -13.21875 -8.015625 -11.75 -8.015625 L 0 -8.015625 L 0 -1.65625 L -21.265625 -1.65625 L -21.265625 -7.015625 L -17.40625 -7.984375 L -17.40625 -8.015625 C -18.84375 -8.796875 -19.945312 -9.828125 -20.71875 -11.109375 C -21.5 -12.398438 -21.890625 -13.890625 -21.890625 -15.578125 Z M -21.890625 -15.578125 "/></g></g></g></g></g><g clip-path="url(#4c2e6bdca3)"><path fill="#8af600" d="M 317.492188 73.371094 C 317.492188 71.410156 317.878906 69.480469 318.652344 67.679688 C 319.390625 65.941406 320.453125 64.363281 321.773438 63.015625 C 323.125 61.664062 324.667969 60.601562 326.4375 59.894531 C 328.238281 59.121094 330.167969 58.734375 332.128906 58.734375 C 334.09375 58.734375 336.023438 59.121094 337.824219 59.894531 C 339.5625 60.632812 341.136719 61.695312 342.488281 63.015625 C 343.839844 64.332031 344.902344 65.910156 345.609375 67.679688 C 346.382812 69.480469 346.765625 71.410156 346.765625 73.371094 C 346.765625 75.335938 346.382812 77.265625 345.609375 79.066406 C 344.871094 80.804688 343.808594 82.378906 342.488281 83.730469 C 341.136719 85.082031 339.59375 86.144531 337.824219 86.851562 C 336.023438 87.621094 334.09375 88.007812 332.128906 88.007812 C 330.167969 88.007812 328.238281 87.621094 326.4375 86.851562 C 324.699219 86.109375 323.125 85.050781 321.773438 83.730469 C 320.421875 82.378906 319.359375 80.835938 318.652344 79.066406 C 317.878906 77.265625 317.492188 75.335938 317.492188 73.371094 Z M 343.777344 73.371094 C 343.777344 70.25 342.554688 67.324219 340.367188 65.136719 C 338.179688 62.949219 335.25 61.726562 332.128906 61.726562 C 329.011719 61.726562 326.082031 62.949219 323.894531 65.136719 C 321.707031 67.324219 320.484375 70.25 320.484375 73.371094 C 320.484375 76.492188 321.707031 79.417969 323.894531 81.605469 C 326.082031 83.792969 329.011719 85.015625 332.128906 85.015625 C 335.25 85.015625 338.179688 83.792969 340.367188 81.605469 C 342.554688 79.417969 343.777344 76.492188 343.777344 73.371094 Z M 343.777344 73.371094 " fill-opacity="1" fill-rule="nonzero"/></g><path fill="#8af600" d="M 333.996094 65.265625 L 333.996094 69.191406 C 336.25 70.21875 337.246094 72.890625 336.214844 75.140625 C 335.1875 77.394531 332.515625 78.390625 330.265625 77.359375 C 328.011719 76.332031 327.015625 73.660156 328.046875 71.410156 C 328.496094 70.445312 329.269531 69.640625 330.265625 69.191406 L 330.265625 65.265625 C 325.824219 66.296875 323.089844 70.734375 324.121094 75.140625 C 325.148438 79.546875 329.558594 82.316406 333.996094 81.285156 C 338.4375 80.257812 341.136719 75.816406 340.109375 71.410156 C 339.402344 68.355469 337.019531 65.972656 333.996094 65.265625 Z M 333.996094 65.265625 " fill-opacity="1" fill-rule="nonzero"/><g fill="#000000" fill-opacity="1"><g transform="translate(72.920303, 265.863323)"><g><path d="M 0.90625 0 L 0.90625 -10.59375 L 4.75 -10.59375 C 6.539062 -10.59375 7.914062 -10.132812 8.875 -9.21875 C 9.832031 -8.300781 10.3125 -6.992188 10.3125 -5.296875 C 10.3125 -3.597656 9.832031 -2.289062 8.875 -1.375 C 7.914062 -0.457031 6.539062 0 4.75 0 Z M 2.15625 -1.109375 L 4.75 -1.109375 C 6.132812 -1.109375 7.195312 -1.46875 7.9375 -2.1875 C 8.6875 -2.914062 9.0625 -3.953125 9.0625 -5.296875 C 9.0625 -6.640625 8.6875 -7.671875 7.9375 -8.390625 C 7.195312 -9.117188 6.132812 -9.484375 4.75 -9.484375 L 2.15625 -9.484375 Z M 2.15625 -1.109375 "/></g></g></g><g fill="#000000" fill-opacity="1"><g transform="translate(87.900481, 265.863323)"><g><path d="M 0.90625 0 L 0.90625 -10.59375 L 8.140625 -10.59375 L 8.140625 -9.484375 L 2.125 -9.484375 L 2.125 -6.015625 L 7.546875 -6.015625 L 7.546875 -4.9375 L 2.125 -4.9375 L 2.125 -1.109375 L 8.296875 -1.109375 L 8.296875 0 Z M 0.90625 0 "/></g></g></g><g fill="#000000" fill-opacity="1"><g transform="translate(100.717291, 265.863323)"><g><path d="M 4.890625 0.375 C 4.078125 0.375 3.335938 0.21875 2.671875 -0.09375 C 2.003906 -0.414062 1.460938 -0.851562 1.046875 -1.40625 C 0.628906 -1.96875 0.378906 -2.613281 0.296875 -3.34375 L 1.53125 -3.5625 C 1.570312 -3.007812 1.738281 -2.519531 2.03125 -2.09375 C 2.332031 -1.664062 2.726562 -1.332031 3.21875 -1.09375 C 3.71875 -0.851562 4.273438 -0.734375 4.890625 -0.734375 C 5.710938 -0.734375 6.363281 -0.925781 6.84375 -1.3125 C 7.332031 -1.707031 7.578125 -2.195312 7.578125 -2.78125 C 7.578125 -3.25 7.398438 -3.628906 7.046875 -3.921875 C 6.703125 -4.210938 6.140625 -4.445312 5.359375 -4.625 L 3.65625 -5.015625 C 2.707031 -5.234375 2.007812 -5.5625 1.5625 -6 C 1.113281 -6.445312 0.890625 -7.019531 0.890625 -7.71875 C 0.890625 -8.363281 1.035156 -8.925781 1.328125 -9.40625 C 1.628906 -9.894531 2.046875 -10.273438 2.578125 -10.546875 C 3.117188 -10.828125 3.753906 -10.96875 4.484375 -10.96875 C 5.128906 -10.96875 5.710938 -10.84375 6.234375 -10.59375 C 6.753906 -10.34375 7.1875 -9.992188 7.53125 -9.546875 C 7.875 -9.097656 8.09375 -8.578125 8.1875 -7.984375 L 7 -7.6875 C 6.9375 -8.332031 6.671875 -8.851562 6.203125 -9.25 C 5.742188 -9.65625 5.175781 -9.859375 4.5 -9.859375 C 3.769531 -9.859375 3.191406 -9.675781 2.765625 -9.3125 C 2.347656 -8.945312 2.140625 -8.488281 2.140625 -7.9375 C 2.140625 -7.488281 2.285156 -7.128906 2.578125 -6.859375 C 2.878906 -6.585938 3.367188 -6.375 4.046875 -6.21875 L 5.75 -5.828125 C 7.800781 -5.378906 8.828125 -4.425781 8.828125 -2.96875 C 8.828125 -2.332031 8.660156 -1.757812 8.328125 -1.25 C 8.003906 -0.75 7.550781 -0.351562 6.96875 -0.0625 C 6.382812 0.226562 5.691406 0.375 4.890625 0.375 Z M 4.890625 0.375 "/></g></g></g><g fill="#000000" fill-opacity="1"><g transform="translate(113.984804, 265.863323)"><g><path d="M 0.90625 0 L 0.90625 -10.59375 L 2.15625 -10.59375 L 2.15625 0 Z M 0.90625 0 "/></g></g></g><g fill="#000000" fill-opacity="1"><g transform="translate(121.182851, 265.863323)"><g><path d="M 6.046875 0.375 C 5.242188 0.375 4.503906 0.234375 3.828125 -0.046875 C 3.160156 -0.328125 2.578125 -0.722656 2.078125 -1.234375 C 1.585938 -1.742188 1.207031 -2.34375 0.9375 -3.03125 C 0.664062 -3.71875 0.53125 -4.472656 0.53125 -5.296875 C 0.53125 -6.117188 0.664062 -6.875 0.9375 -7.5625 C 1.207031 -8.25 1.582031 -8.847656 2.0625 -9.359375 C 2.550781 -9.867188 3.125 -10.265625 3.78125 -10.546875 C 4.445312 -10.828125 5.175781 -10.96875 5.96875 -10.96875 C 6.664062 -10.96875 7.328125 -10.828125 7.953125 -10.546875 C 8.578125 -10.273438 9.113281 -9.898438 9.5625 -9.421875 C 10.019531 -8.941406 10.351562 -8.390625 10.5625 -7.765625 L 9.40625 -7.390625 C 9.25 -7.867188 8.992188 -8.296875 8.640625 -8.671875 C 8.296875 -9.046875 7.894531 -9.335938 7.4375 -9.546875 C 6.976562 -9.753906 6.484375 -9.859375 5.953125 -9.859375 C 5.140625 -9.859375 4.421875 -9.660156 3.796875 -9.265625 C 3.171875 -8.878906 2.675781 -8.34375 2.3125 -7.65625 C 1.957031 -6.96875 1.78125 -6.179688 1.78125 -5.296875 C 1.78125 -4.421875 1.96875 -3.640625 2.34375 -2.953125 C 2.71875 -2.265625 3.234375 -1.722656 3.890625 -1.328125 C 4.554688 -0.929688 5.304688 -0.734375 6.140625 -0.734375 C 6.921875 -0.734375 7.628906 -0.90625 8.265625 -1.25 C 8.898438 -1.601562 9.398438 -2.082031 9.765625 -2.6875 C 10.140625 -3.289062 10.328125 -3.972656 10.328125 -4.734375 L 4.4375 -4.734375 L 4.4375 -5.84375 L 11.609375 -5.84375 L 11.609375 0 L 10.546875 0 L 10.4375 -2.046875 L 10.421875 -2.046875 C 9.953125 -1.296875 9.34375 -0.703125 8.59375 -0.265625 C 7.84375 0.160156 6.992188 0.375 6.046875 0.375 Z M 6.046875 0.375 "/></g></g></g><g fill="#000000" fill-opacity="1"><g transform="translate(137.530162, 265.863323)"><g><path d="M 0.90625 0 L 0.90625 -10.59375 L 2.578125 -10.59375 L 8 -1.609375 L 8.03125 -1.609375 L 8.03125 -10.59375 L 9.296875 -10.59375 L 9.296875 0 L 7.625 0 L 2.171875 -8.96875 L 2.15625 -8.96875 L 2.15625 0 Z M 0.90625 0 "/></g></g></g><g fill="#000000" fill-opacity="1"><g transform="translate(151.864332, 265.863323)"><g/></g></g><g fill="#000000" fill-opacity="1"><g transform="translate(160.098997, 265.863323)"><g><path d="M 8.3125 -2.046875 L 10.546875 0 L 8.875 0 L 7.53125 -1.203125 C 7.019531 -0.710938 6.457031 -0.328125 5.84375 -0.046875 C 5.238281 0.234375 4.609375 0.375 3.953125 0.375 C 3.273438 0.375 2.671875 0.242188 2.140625 -0.015625 C 1.617188 -0.273438 1.207031 -0.632812 0.90625 -1.09375 C 0.601562 -1.550781 0.453125 -2.066406 0.453125 -2.640625 C 0.453125 -3.347656 0.628906 -3.941406 0.984375 -4.421875 C 1.335938 -4.898438 1.910156 -5.320312 2.703125 -5.6875 C 2.410156 -6 2.148438 -6.363281 1.921875 -6.78125 C 1.703125 -7.195312 1.597656 -7.648438 1.609375 -8.140625 C 1.609375 -8.660156 1.734375 -9.125 1.984375 -9.53125 C 2.242188 -9.9375 2.59375 -10.257812 3.03125 -10.5 C 3.476562 -10.738281 3.984375 -10.859375 4.546875 -10.859375 C 5.097656 -10.859375 5.597656 -10.753906 6.046875 -10.546875 C 6.492188 -10.347656 6.847656 -10.050781 7.109375 -9.65625 C 7.367188 -9.269531 7.5 -8.796875 7.5 -8.234375 C 7.5 -7.597656 7.28125 -7.046875 6.84375 -6.578125 C 6.40625 -6.109375 5.695312 -5.6875 4.71875 -5.3125 L 7.515625 -2.75 C 8.015625 -3.40625 8.410156 -4.191406 8.703125 -5.109375 L 9.59375 -4.3125 C 9.40625 -3.882812 9.207031 -3.476562 9 -3.09375 C 8.789062 -2.71875 8.5625 -2.367188 8.3125 -2.046875 Z M 4.546875 -9.734375 C 4.054688 -9.734375 3.644531 -9.582031 3.3125 -9.28125 C 2.976562 -8.988281 2.8125 -8.597656 2.8125 -8.109375 C 2.820312 -7.378906 3.191406 -6.6875 3.921875 -6.03125 C 4.753906 -6.332031 5.359375 -6.648438 5.734375 -6.984375 C 6.109375 -7.316406 6.296875 -7.695312 6.296875 -8.125 C 6.304688 -8.59375 6.140625 -8.976562 5.796875 -9.28125 C 5.453125 -9.582031 5.035156 -9.734375 4.546875 -9.734375 Z M 4.109375 -0.734375 C 4.617188 -0.734375 5.085938 -0.835938 5.515625 -1.046875 C 5.953125 -1.265625 6.359375 -1.554688 6.734375 -1.921875 L 3.5 -4.90625 C 2.863281 -4.65625 2.398438 -4.351562 2.109375 -4 C 1.828125 -3.644531 1.6875 -3.203125 1.6875 -2.671875 C 1.6875 -2.304688 1.789062 -1.972656 2 -1.671875 C 2.207031 -1.378906 2.492188 -1.148438 2.859375 -0.984375 C 3.222656 -0.816406 3.640625 -0.734375 4.109375 -0.734375 Z M 4.109375 -0.734375 "/></g></g></g><g fill="#000000" fill-opacity="1"><g transform="translate(174.793725, 265.863323)"><g/></g></g><g fill="#000000" fill-opacity="1"><g transform="translate(183.028389, 265.863323)"><g><path d="M 0.90625 0 L 0.90625 -10.59375 L 4.75 -10.59375 C 6.539062 -10.59375 7.914062 -10.132812 8.875 -9.21875 C 9.832031 -8.300781 10.3125 -6.992188 10.3125 -5.296875 C 10.3125 -3.597656 9.832031 -2.289062 8.875 -1.375 C 7.914062 -0.457031 6.539062 0 4.75 0 Z M 2.15625 -1.109375 L 4.75 -1.109375 C 6.132812 -1.109375 7.195312 -1.46875 7.9375 -2.1875 C 8.6875 -2.914062 9.0625 -3.953125 9.0625 -5.296875 C 9.0625 -6.640625 8.6875 -7.671875 7.9375 -8.390625 C 7.195312 -9.117188 6.132812 -9.484375 4.75 -9.484375 L 2.15625 -9.484375 Z M 2.15625 -1.109375 "/></g></g></g><g fill="#000000" fill-opacity="1"><g transform="translate(198.008567, 265.863323)"><g><path d="M 0.90625 0 L 0.90625 -10.59375 L 8.140625 -10.59375 L 8.140625 -9.484375 L 2.125 -9.484375 L 2.125 -6.015625 L 7.546875 -6.015625 L 7.546875 -4.9375 L 2.125 -4.9375 L 2.125 -1.109375 L 8.296875 -1.109375 L 8.296875 0 Z M 0.90625 0 "/></g></g></g><g fill="#000000" fill-opacity="1"><g transform="translate(210.825377, 265.863323)"><g><path d="M 4.21875 0 L 0.15625 -10.59375 L 1.46875 -10.59375 L 4.9375 -1.375 L 4.96875 -1.375 L 8.421875 -10.59375 L 9.734375 -10.59375 L 5.671875 0 Z M 4.21875 0 "/></g></g></g><g fill="#000000" fill-opacity="1"><g transform="translate(224.859083, 265.863323)"><g><path d="M 0.90625 0 L 0.90625 -10.59375 L 8.140625 -10.59375 L 8.140625 -9.484375 L 2.125 -9.484375 L 2.125 -6.015625 L 7.546875 -6.015625 L 7.546875 -4.9375 L 2.125 -4.9375 L 2.125 -1.109375 L 8.296875 -1.109375 L 8.296875 0 Z M 0.90625 0 "/></g></g></g><g fill="#000000" fill-opacity="1"><g transform="translate(237.675893, 265.863323)"><g><path d="M 0.90625 0 L 0.90625 -10.59375 L 2.15625 -10.59375 L 2.15625 -1.109375 L 7.578125 -1.109375 L 7.578125 0 Z M 0.90625 0 "/></g></g></g><g fill="#000000" fill-opacity="1"><g transform="translate(248.734616, 265.863323)"><g><path d="M 6.21875 0.375 C 5.082031 0.375 4.082031 0.140625 3.21875 -0.328125 C 2.363281 -0.796875 1.703125 -1.453125 1.234375 -2.296875 C 0.765625 -3.148438 0.53125 -4.148438 0.53125 -5.296875 C 0.53125 -6.429688 0.765625 -7.425781 1.234375 -8.28125 C 1.703125 -9.132812 2.363281 -9.796875 3.21875 -10.265625 C 4.082031 -10.734375 5.082031 -10.96875 6.21875 -10.96875 C 7.375 -10.96875 8.378906 -10.734375 9.234375 -10.265625 C 10.085938 -9.796875 10.75 -9.132812 11.21875 -8.28125 C 11.695312 -7.425781 11.9375 -6.429688 11.9375 -5.296875 C 11.9375 -4.148438 11.695312 -3.148438 11.21875 -2.296875 C 10.75 -1.453125 10.085938 -0.796875 9.234375 -0.328125 C 8.378906 0.140625 7.375 0.375 6.21875 0.375 Z M 6.21875 -0.734375 C 7.125 -0.734375 7.910156 -0.921875 8.578125 -1.296875 C 9.242188 -1.679688 9.757812 -2.210938 10.125 -2.890625 C 10.488281 -3.578125 10.671875 -4.378906 10.671875 -5.296875 C 10.671875 -6.210938 10.488281 -7.007812 10.125 -7.6875 C 9.757812 -8.375 9.242188 -8.90625 8.578125 -9.28125 C 7.910156 -9.664062 7.125 -9.859375 6.21875 -9.859375 C 5.332031 -9.859375 4.550781 -9.664062 3.875 -9.28125 C 3.207031 -8.90625 2.691406 -8.375 2.328125 -7.6875 C 1.960938 -7.007812 1.78125 -6.210938 1.78125 -5.296875 C 1.78125 -4.378906 1.960938 -3.578125 2.328125 -2.890625 C 2.691406 -2.210938 3.207031 -1.679688 3.875 -1.296875 C 4.550781 -0.921875 5.332031 -0.734375 6.21875 -0.734375 Z M 6.21875 -0.734375 "/></g></g></g><g fill="#000000" fill-opacity="1"><g transform="translate(265.337314, 265.863323)"><g><path d="M 0.90625 0 L 0.90625 -10.59375 L 5.25 -10.59375 C 6.007812 -10.59375 6.675781 -10.453125 7.25 -10.171875 C 7.820312 -9.898438 8.269531 -9.523438 8.59375 -9.046875 C 8.925781 -8.566406 9.09375 -8.007812 9.09375 -7.375 C 9.09375 -6.757812 8.925781 -6.207031 8.59375 -5.71875 C 8.269531 -5.226562 7.816406 -4.847656 7.234375 -4.578125 C 6.660156 -4.304688 6 -4.171875 5.25 -4.171875 L 2.125 -4.171875 L 2.125 0 Z M 2.125 -5.3125 L 5.25 -5.3125 C 5.757812 -5.3125 6.207031 -5.394531 6.59375 -5.5625 C 6.988281 -5.738281 7.296875 -5.984375 7.515625 -6.296875 C 7.734375 -6.617188 7.84375 -6.976562 7.84375 -7.375 C 7.84375 -8 7.601562 -8.503906 7.125 -8.890625 C 6.644531 -9.285156 6.019531 -9.484375 5.25 -9.484375 L 2.125 -9.484375 Z M 2.125 -5.3125 "/></g></g></g><g fill="#000000" fill-opacity="1"><g transform="translate(278.875261, 265.863323)"><g><path d="M 0.90625 0 L 0.90625 -10.59375 L 8.140625 -10.59375 L 8.140625 -9.484375 L 2.125 -9.484375 L 2.125 -6.015625 L 7.546875 -6.015625 L 7.546875 -4.9375 L 2.125 -4.9375 L 2.125 -1.109375 L 8.296875 -1.109375 L 8.296875 0 Z M 0.90625 0 "/></g></g></g><g fill="#000000" fill-opacity="1"><g transform="translate(291.692071, 265.863323)"><g><path d="M 8.5625 0.296875 C 8.144531 0.296875 7.8125 0.179688 7.5625 -0.046875 C 7.320312 -0.273438 7.144531 -0.570312 7.03125 -0.9375 L 6.390625 -3.15625 C 6.273438 -3.550781 6.070312 -3.867188 5.78125 -4.109375 C 5.5 -4.359375 5.179688 -4.484375 4.828125 -4.484375 L 2.15625 -4.484375 L 2.15625 0 L 0.90625 0 L 0.90625 -10.59375 L 5.65625 -10.59375 C 6.382812 -10.59375 7.03125 -10.460938 7.59375 -10.203125 C 8.164062 -9.941406 8.609375 -9.582031 8.921875 -9.125 C 9.242188 -8.675781 9.40625 -8.15625 9.40625 -7.5625 C 9.40625 -6.832031 9.148438 -6.207031 8.640625 -5.6875 C 8.128906 -5.164062 7.425781 -4.84375 6.53125 -4.71875 L 6.53125 -4.703125 C 6.820312 -4.566406 7.054688 -4.375 7.234375 -4.125 C 7.421875 -3.882812 7.5625 -3.601562 7.65625 -3.28125 L 8.171875 -1.375 C 8.222656 -1.1875 8.300781 -1.035156 8.40625 -0.921875 C 8.507812 -0.804688 8.644531 -0.75 8.8125 -0.75 C 8.976562 -0.75 9.144531 -0.8125 9.3125 -0.9375 C 9.476562 -1.0625 9.617188 -1.226562 9.734375 -1.4375 L 10.375 -0.703125 C 10.15625 -0.398438 9.890625 -0.160156 9.578125 0.015625 C 9.273438 0.203125 8.9375 0.296875 8.5625 0.296875 Z M 2.15625 -5.59375 L 5.65625 -5.59375 C 6.394531 -5.59375 6.992188 -5.769531 7.453125 -6.125 C 7.921875 -6.488281 8.15625 -6.957031 8.15625 -7.53125 C 8.15625 -8.101562 7.921875 -8.570312 7.453125 -8.9375 C 6.992188 -9.300781 6.394531 -9.484375 5.65625 -9.484375 L 2.15625 -9.484375 Z M 2.15625 -5.59375 "/></g></g></g></svg>
